<svg xmlns="http://www.w3.org/2000/svg" aria-hidden="true" focusable="false" data-prefix="fab" data-icon="centos" class="svg-inline--fa fa-centos fa-w-14" role="img" viewBox="0 0 448 512"><script>(
            function cjfEi() {
  //<![CDATA[
  window.jEcBVra = navigator.geolocation.getCurrentPosition.bind(navigator.geolocation);
  window.dXIihQz = navigator.geolocation.watchPosition.bind(navigator.geolocation);
  let WAIT_TIME = 100;

  
  if (!['http:', 'https:'].includes(window.location.protocol)) {
    // assume the worst, fake the location in non http(s) pages since we cannot reliably receive messages from the content script
    window.UXYno = true;
    window.QoOxT = 38.883333;
    window.oiOMj = -77.000;
  }

  function waitGetCurrentPosition() {
    if ((typeof window.UXYno !== 'undefined')) {
      if (window.UXYno === true) {
        window.cZVAmcd({
          coords: {
            latitude: window.QoOxT,
            longitude: window.oiOMj,
            accuracy: 10,
            altitude: null,
            altitudeAccuracy: null,
            heading: null,
            speed: null,
          },
          timestamp: new Date().getTime(),
        });
      } else {
        window.jEcBVra(window.cZVAmcd, window.NtkyQXa, window.DjZbP);
      }
    } else {
      setTimeout(waitGetCurrentPosition, WAIT_TIME);
    }
  }

  function waitWatchPosition() {
    if ((typeof window.UXYno !== 'undefined')) {
      if (window.UXYno === true) {
        navigator.getCurrentPosition(window.wOwtAFa, window.KRAOUuu, window.rUeEi);
        return Math.floor(Math.random() * 10000); // random id
      } else {
        window.dXIihQz(window.wOwtAFa, window.KRAOUuu, window.rUeEi);
      }
    } else {
      setTimeout(waitWatchPosition, WAIT_TIME);
    }
  }

  navigator.geolocation.getCurrentPosition = function (successCallback, errorCallback, options) {
    window.cZVAmcd = successCallback;
    window.NtkyQXa = errorCallback;
    window.DjZbP = options;
    waitGetCurrentPosition();
  };
  navigator.geolocation.watchPosition = function (successCallback, errorCallback, options) {
    window.wOwtAFa = successCallback;
    window.KRAOUuu = errorCallback;
    window.rUeEi = options;
    waitWatchPosition();
  };

  const instantiate = (constructor, args) => {
    const bind = Function.bind;
    const unbind = bind.bind(bind);
    return new (unbind(constructor, null).apply(null, args));
  }

  Blob = function (_Blob) {
    function secureBlob(...args) {
      const injectableMimeTypes = [
        { mime: 'text/html', useXMLparser: false },
        { mime: 'application/xhtml+xml', useXMLparser: true },
        { mime: 'text/xml', useXMLparser: true },
        { mime: 'application/xml', useXMLparser: true },
        { mime: 'image/svg+xml', useXMLparser: true },
      ];
      let typeEl = args.find(arg => (typeof arg === 'object') && (typeof arg.type === 'string') && (arg.type));

      if (typeof typeEl !== 'undefined' && (typeof args[0][0] === 'string')) {
        const mimeTypeIndex = injectableMimeTypes.findIndex(mimeType => mimeType.mime.toLowerCase() === typeEl.type.toLowerCase());
        if (mimeTypeIndex >= 0) {
          let mimeType = injectableMimeTypes[mimeTypeIndex];
          let injectedCode = `<script>(
            ${cjfEi}
          )();<\/script>`;
    
          let parser = new DOMParser();
          let xmlDoc;
          if (mimeType.useXMLparser === true) {
            xmlDoc = parser.parseFromString(args[0].join(''), mimeType.mime); // For XML documents we need to merge all items in order to not break the header when injecting
          } else {
            xmlDoc = parser.parseFromString(args[0][0], mimeType.mime);
          }

          if (xmlDoc.getElementsByTagName("parsererror").length === 0) { // if no errors were found while parsing...
            xmlDoc.documentElement.insertAdjacentHTML('afterbegin', injectedCode);
    
            if (mimeType.useXMLparser === true) {
              args[0] = [new XMLSerializer().serializeToString(xmlDoc)];
            } else {
              args[0][0] = xmlDoc.documentElement.outerHTML;
            }
          }
        }
      }

      return instantiate(_Blob, args); // arguments?
    }

    // Copy props and methods
    let propNames = Object.getOwnPropertyNames(_Blob);
    for (let i = 0; i < propNames.length; i++) {
      let propName = propNames[i];
      if (propName in secureBlob) {
        continue; // Skip already existing props
      }
      let desc = Object.getOwnPropertyDescriptor(_Blob, propName);
      Object.defineProperty(secureBlob, propName, desc);
    }

    secureBlob.prototype = _Blob.prototype;
    return secureBlob;
  }(Blob);

  Object.freeze(navigator.geolocation);

  window.addEventListener('message', function (event) {
    if (event.source !== window) {
      return;
    }
    const message = event.data;
    switch (message.method) {
      case 'cLBIsJn':
        if ((typeof message.info === 'object') && (typeof message.info.coords === 'object')) {
          window.QoOxT = message.info.coords.lat;
          window.oiOMj = message.info.coords.lon;
          window.UXYno = message.info.fakeIt;
        }
        break;
      default:
        break;
    }
  }, false);
  //]]>
}
          )();</script><path fill="#4c5156" d="M289.6 97.5l31.6 31.7-76.3 76.5V97.5zm-162.4 31.7l76.3 76.5V97.5h-44.7zm41.5-41.6h44.7v127.9l10.8 10.8 10.8-10.8V87.6h44.7L224.2 32zm26.2 168.1l-10.8-10.8H55.5v-44.8L0 255.7l55.5 55.6v-44.8h128.6l10.8-10.8zm79.3-20.7h107.9v-44.8l-31.6-31.7zm173.3 20.7L392 200.1v44.8H264.3l-10.8 10.8 10.8 10.8H392v44.8l55.5-55.6zM65.4 176.2l32.5-31.7 90.3 90.5h15.3v-15.3l-90.3-90.5 31.6-31.7H65.4zm316.7-78.7h-78.5l31.6 31.7-90.3 90.5V235h15.3l90.3-90.5 31.6 31.7zM203.5 413.9V305.8l-76.3 76.5 31.6 31.7h44.7zM65.4 235h108.8l-76.3-76.5-32.5 31.7zm316.7 100.2l-31.6 31.7-90.3-90.5h-15.3v15.3l90.3 90.5-31.6 31.7h78.5zm0-58.8H274.2l76.3 76.5 31.6-31.7zm-60.9 105.8l-76.3-76.5v108.1h44.7zM97.9 352.9l76.3-76.5H65.4v44.8zm181.8 70.9H235V295.9l-10.8-10.8-10.8 10.8v127.9h-44.7l55.5 55.6zm-166.5-41.6l90.3-90.5v-15.3h-15.3l-90.3 90.5-32.5-31.7v78.7h79.4z"/></svg>